<svg width="30" height="31" viewBox="0 0 30 31" fill="none" xmlns="http://www.w3.org/2000/svg">
<path fill-rule="evenodd" clip-rule="evenodd" d="M9.375 0.8125H20.625C25.8019 0.8125 30 5.01062 30 10.1875V21.4375C30 26.6144 25.8019 30.8125 20.625 30.8125H9.375C4.19812 30.8125 0 26.6144 0 21.4375V10.1875C0 5.01062 4.19812 0.8125 9.375 0.8125ZM20.625 28C24.2437 28 27.1875 25.0562 27.1875 21.4375V10.1875C27.1875 6.56875 24.2437 3.625 20.625 3.625H9.375C5.75625 3.625 2.8125 6.56875 2.8125 10.1875V21.4375C2.8125 25.0562 5.75625 28 9.375 28H20.625ZM7.5 15.8125C7.5 11.6706 10.8581 8.3125 15 8.3125C19.1419 8.3125 22.5 11.6706 22.5 15.8125C22.5 19.9544 19.1419 23.3125 15 23.3125C10.8581 23.3125 7.5 19.9544 7.5 15.8125ZM10.3125 15.8125C10.3125 18.3962 12.4163 20.5 15 20.5C17.5837 20.5 19.6875 18.3962 19.6875 15.8125C19.6875 13.2269 17.5837 11.125 15 11.125C12.4163 11.125 10.3125 13.2269 10.3125 15.8125ZM24.0619 7.75001C24.0619 8.30195 23.6145 8.74938 23.0626 8.74938C22.5106 8.74938 22.0632 8.30195 22.0632 7.75001C22.0632 7.19807 22.5106 6.75063 23.0626 6.75063C23.6145 6.75063 24.0619 7.19807 24.0619 7.75001Z" fill="#E1579C"/>
</svg>
