<svg width="30" height="31" viewBox="0 0 30 31" fill="none" xmlns="http://www.w3.org/2000/svg">
<path fill-rule="evenodd" clip-rule="evenodd" d="M6.5625 4.09375C6.5625 5.90593 5.09343 7.375 3.28125 7.375C1.46907 7.375 0 5.90593 0 4.09375C0 2.28157 1.46907 0.8125 3.28125 0.8125C5.09343 0.8125 6.5625 2.28157 6.5625 4.09375ZM0 10.1875H6.70875V30.8125H0V10.1875ZM24.9825 10.4294C24.9587 10.4219 24.9354 10.4142 24.9121 10.4065C24.8654 10.391 24.8187 10.3756 24.7687 10.3619C24.6787 10.3413 24.5887 10.3244 24.4969 10.3094C24.1406 10.2381 23.7506 10.1875 23.2931 10.1875C19.3819 10.1875 16.9013 13.0319 16.0837 14.1306V10.1875H9.375V30.8125H16.0837V19.5625C16.0837 19.5625 21.1537 12.5012 23.2931 17.6875V30.8125H30V16.8944C30 13.7781 27.8644 11.1812 24.9825 10.4294Z" fill="#00AAFF"/>
</svg>
